<?xml version="1.0" encoding="UTF-8" standalone="no"?>
<!-- Created with sK1/UniConvertor (http://sk1project.org/) -->

<svg
   xmlns:dc="http://purl.org/dc/elements/1.1/"
   xmlns:cc="http://creativecommons.org/ns#"
   xmlns:rdf="http://www.w3.org/1999/02/22-rdf-syntax-ns#"
   xmlns:svg="http://www.w3.org/2000/svg"
   xmlns="http://www.w3.org/2000/svg"
   xmlns:sodipodi="http://sodipodi.sourceforge.net/DTD/sodipodi-0.dtd"
   xmlns:inkscape="http://www.inkscape.org/namespaces/inkscape"
   width="1386pt"
   height="248pt"
   viewBox="0 0 1386 248"
   fill-rule="evenodd"
   version="1.1"
   id="svg26"
   sodipodi:docname="unnamed.svg"
   inkscape:version="0.92.4 (5da689c313, 2019-01-14)">
  <metadata
     id="metadata32">
    <rdf:RDF>
      <cc:Work
         rdf:about="">
        <dc:format>image/svg+xml</dc:format>
        <dc:type
           rdf:resource="http://purl.org/dc/dcmitype/StillImage" />
      </cc:Work>
    </rdf:RDF>
  </metadata>
  <defs
     id="defs30" />
  <sodipodi:namedview
     pagecolor="#ffffff"
     bordercolor="#666666"
     borderopacity="1"
     objecttolerance="10"
     gridtolerance="10"
     guidetolerance="10"
     inkscape:pageopacity="0"
     inkscape:pageshadow="2"
     inkscape:window-width="2560"
     inkscape:window-height="1566"
     id="namedview28"
     showgrid="false"
     inkscape:zoom="0.64588541"
     inkscape:cx="576.88262"
     inkscape:cy="146.3138"
     inkscape:window-x="-11"
     inkscape:window-y="-11"
     inkscape:window-maximized="1"
     inkscape:current-layer="g22" />
  <g
     id="g24">
    <g
       id="g22">
      <path
         style="stroke:none;fill:#000098;fill-opacity:1"
         d="M 182.2 39.2C 181 39.8 179 41.9 177.7 43.9L 175.5 47.5L 175.5 119.5C 175.5 187.3 175.6 191.7 177.3 194.8C 181 201.5 192.3 203.7 198.4 198.9C 203.5 194.9 204 192.1 204 166.3C 204.1 125.5 205.9 116.9 215.8 109.3C 225.8 101.7 240.8 102.7 246.1 111.3C 250 117.7 250.3 120.8 250.9 156.5C 251.6 194.6 251.7 195.8 257.6 199.6C 261.3 202.1 270 201.8 273.8 199.1C 279.9 194.8 280.2 192.7 279.8 149.4C 279.5 111.5 279.4 110.4 277.1 104.7C 273.8 96.4 265.5 87.7 258.2 84.9C 241.9 78.7 224.4 81.6 211.4 92.6L 205.3 97.8L 204.5 73.2C 203.7 46 203.2 43.3 197.6 39.9C 194.1 37.8 186 37.4 182.2 39.2z"
         id="path2" />
      <path
         style="stroke:none;fill:#000098;fill-opacity:1"
         d="M 881.2 39.7C 876.9 41.8 873.3 46.1 872 50.8C 870.5 56.2 870.6 186 872.1 191.1C 876.4 205.3 895.9 204.7 900 190.2C 900.6 187.9 901 168.4 901 138.5L 901 90.5L 917.4 115.5C 926.4 129.2 939.6 149.3 946.6 160C 969.6 195.3 972.8 199 981.7 201.1C 987.9 202.5 995.3 200.5 998.9 196.5C 1004 190.6 1004.2 188.5 1003.8 115.5C 1003.5 41.9 1003.7 45.1 997.4 40.1C 993.6 37.1 984.3 37.2 980.5 40.2C 974.5 44.9 974.5 44.9 974 99.1L 973.5 148.8L 970.3 144.1C 968.6 141.6 953.2 118.4 936 92.5C 918.9 66.6 903.8 44.4 902.7 43.2C 901.5 41.9 899.3 40.2 897.8 39.4C 894.2 37.5 885.3 37.7 881.2 39.7z"
         id="path4" />
      <path
         style="stroke:none;fill:#000098;fill-opacity:1"
         d="M 42.1 40.9C 37.5 42.1 33.8 45 31.8 49.1C 30.1 52.2 30 57.8 30 120.8C 30 176.4 30.3 189.7 31.4 192.3C 35.2 201.3 46.7 204.3 54.6 198.4C 60.1 194.3 61 190.9 61 174.3C 61 166.2 61.3 154.4 61.7 148.2L 62.3 137L 81 137C 109.6 137 122.5 134.1 134.2 125.2C 141.3 119.7 146.2 112.2 148.5 103.5C 150.3 96.6 150.6 81.5 149 74.6C 146.4 63 137.8 51.5 127.9 46.4C 118 41.4 112.9 40.8 78 40.4C 60.1 40.2 44 40.5 42.1 40.9zM 102.6 66.4C 105.4 67.3 108.9 68.9 110.4 70.1C 116.4 74.8 119.5 86.9 117 96C 116.2 98.9 114.3 101.9 111.6 104.6C 105.4 110.8 100 112.2 79.3 112.7L 62 113.2L 62 88.5L 62 63.8L 79.8 64.3C 92.1 64.6 99.1 65.3 102.6 66.4z"
         id="path6" />
      <path
         style="stroke:none;fill:#000098;fill-opacity:1"
         d="M 1305.4 42.1C 1301.2 43.3 1297.2 47.4 1296 51.9C 1295.5 53.9 1295 61.9 1295 69.7L 1295 84L 1291.5 84C 1279.6 84 1273.9 94.1 1281.4 101.6C 1284.4 104.6 1285.4 105 1289.9 105L 1295 105L 1295 139.2C 1295 176 1295.8 183.7 1300.1 190.6C 1304.7 198.1 1313.4 201.3 1328.7 201.2C 1340.8 201.2 1348.6 199.2 1353.4 195C 1358.9 190.1 1358.5 182.3 1352.5 178.4C 1350.1 176.8 1349.1 176.8 1342 177.9C 1332.1 179.5 1328.5 178.8 1326.2 174.7C 1324.7 171.8 1324.5 167.9 1324.5 138.5L 1324.5 105.5L 1332.5 104.9C 1336.9 104.6 1341.5 103.8 1342.7 103.1C 1347.8 100.4 1349.6 93.7 1346.4 89.1C 1344 85.7 1338.9 84 1331 84L 1324 84L 1324 68.8C 1324 50.5 1322.7 46.5 1315.6 43.1C 1311 40.8 1310.1 40.7 1305.4 42.1z"
         id="path8" />
      <path
         style="stroke:none;fill:#000098;fill-opacity:1"
         d="M 348.5 82C 340.5 82.9 330.5 86 324.4 89.6C 315.6 94.8 309.1 104.7 309 112.9C 309 116.5 309.6 117.8 312.4 120.6C 314.3 122.5 316.6 124 317.7 124.1C 318.7 124.1 320.3 124.3 321.4 124.5C 324.9 125.2 327.8 123.1 332.8 116.2C 341.2 104.6 346.2 102 360 102C 375.9 102 380.2 105.5 382.6 120.6L 383.2 124.7L 368.4 128.3C 360.2 130.3 347.9 133.1 341 134.5C 321.8 138.4 312.2 144 306.7 154.4C 303.5 160.4 303.5 175.6 306.7 182C 313.6 195.9 329.8 203.2 348.9 201C 360 199.7 367.7 196.6 379.1 188.9L 384.6 185.2L 389.3 191.5C 395.4 199.8 400.9 202.7 407 200.9C 412.1 199.4 417 194 417 190.1C 417 188.5 416.1 184.3 415 180.8C 411.9 170.6 411.1 162.3 411.7 143.8C 412.3 125.3 411.1 111.7 408.3 103.4C 405.8 96.1 397.4 88.1 389 85.2C 378.3 81.5 363.9 80.4 348.5 82zM 382 157.9C 380.6 166 378.1 171 373.3 174.9C 364.7 182 349.6 184.3 341.5 179.7C 336.3 176.8 332.7 170.1 333.4 164.6C 334.5 155.9 339.9 152.5 359.5 148.1C 367.2 146.4 375.5 144.3 378 143.6L 382.5 142.3L 382.8 146.9C 383 149.4 382.6 154.3 382 157.9z"
         id="path10" />
      <path
         style="stroke:none;fill:#000098;fill-opacity:1"
         d="M 548.2 82.1C 543.9 83 540.2 86.5 539 90.9C 537.5 96.2 537.7 186.2 539.1 191.1C 543.3 204.9 563.1 204.7 567 190.9C 567.6 189.1 568 175.6 568 161C 568.1 132 569.2 122 573.2 114.1C 576.5 107.8 582.2 104.7 590.4 104.6C 606.3 104.5 607.8 109.3 608 161C 608 186.7 608.2 189.9 609.9 193.7C 614.6 204 630.1 204 635.8 193.7C 637.3 190.9 637.6 186.2 638.1 157.5C 638.7 125.4 639.1 121.6 642.3 115.4C 648.6 103.4 667.3 100.7 673.4 111.1C 676.1 115.6 677 128.3 677 159.9C 677 187.2 677.1 189.7 679 193.5C 681.5 198.7 685.8 201.2 692.2 201.2C 697.6 201.2 700.8 199.5 704.4 194.6C 706.4 192 706.5 190.4 706.8 154.7C 707 131.8 706.7 115 706 110.7C 704.1 98.1 698.4 90.4 687 85.1C 682.1 82.8 680.3 82.5 670 82.5C 659.2 82.5 658.1 82.7 652 85.6C 648.4 87.3 643 91 640 93.7L 634.4 98.8L 629.7 93.5C 626.8 90.2 622.8 87.1 619.3 85.3C 614 82.7 612.6 82.5 602 82.5C 591.1 82.5 590.1 82.7 583.7 85.7C 580 87.5 574.5 91.2 571.5 94.1L 566 99.3L 566 96.4C 565.9 92.3 562.6 85.4 559.9 83.9C 556.3 82 551.8 81.3 548.2 82.1z"
         id="path12" />
      <path
         style="stroke:none;fill:#000098;fill-opacity:1"
         d="M 774.4 82C 757.1 84.4 744.3 91.5 738.8 101.6C 732.5 113.2 734.7 121.1 745.1 124C 750.6 125.6 754.1 123.6 759.5 115.8C 767.4 104.5 772.3 102 787 102C 801.8 102.1 807.1 106.4 808.7 119.9L 809.2 124.8L 794.4 128.4C 786.2 130.3 773.9 133.1 767 134.5C 752.7 137.5 745.9 140.2 740.3 145.3C 725.7 158.5 727.1 182.4 743.1 194C 750.3 199.1 757.3 201.2 768.1 201.2C 782.1 201.2 794.1 197.2 806.2 188.4L 810.9 184.9L 813.8 189.2C 817.7 194.8 822.8 199.6 826.1 200.9C 831.3 202.8 838.8 199.7 841.6 194.5C 843.5 190.9 843.2 187.1 840.1 175.6C 838.2 168.5 838 165.1 838 143.6C 838 117 837.1 109.3 833.3 100.7C 829.2 91.7 822 86.4 809.8 83.5C 802 81.7 782.6 80.8 774.4 82zM 808 159.3C 806.5 166.4 804.3 170.5 800 174.4C 792 181.6 775.6 184.5 768.1 179.9C 759.6 174.7 757.2 165.4 762.4 157.6C 764.8 153.9 771.7 151.3 790.5 146.8L 808.5 142.5L 808.8 148.4C 809 151.6 808.6 156.5 808 159.3z"
         id="path14" />
      <path
         style="stroke:none;fill:#000098;fill-opacity:1"
         d="M 1077.5 82.5C 1058.5 86.1 1046.7 94.7 1039 110.4C 1026.8 135.4 1030.8 168 1048.3 185.5C 1059.1 196.2 1072.2 201.1 1090.8 201.2C 1103.8 201.3 1111.3 199.8 1120.5 195.5C 1128.7 191.7 1135.2 186.3 1139.2 180.1C 1144.1 172.3 1142.6 163.6 1135.9 161.5C 1131.5 160.1 1127.3 162 1119.6 168.9C 1109.6 177.8 1103 181.1 1094.1 181.8C 1077.4 183 1064.8 171.9 1062.4 154.2L 1061.7 149L 1092.1 149C 1130.6 149 1136.7 148.1 1141.4 141.7C 1144.6 137.4 1144.4 122.7 1141.1 114.5C 1133.4 95.7 1119.3 84.9 1098.7 82.1C 1089.1 80.8 1086.4 80.8 1077.5 82.5zM 1100.7 104.4C 1108.7 108.2 1113.1 115.4 1115.4 128.7L 1116 132L 1088.9 132L 1061.9 132L 1062.5 128.2C 1064 119.6 1067.9 111.5 1072.4 107.7C 1079.6 101.5 1091.5 100.2 1100.7 104.4z"
         id="path16" />
      <path
         style="stroke:none;fill:#000098;fill-opacity:1"
         d="M 448.4 83.9C 442.5 87.5 442.5 87.7 442.5 142.1L 442.5 191.6L 445 195.3C 451.1 204.2 464.2 203.3 468.9 193.7C 470.8 189.7 471 187.6 471 169.4C 471 138.5 473.3 121.5 478.7 113.3C 480.9 110 487.1 107 492 107C 494.2 107 499.8 107.9 504.4 109.1C 512.3 111.1 512.9 111.1 515.9 109.5C 519.8 107.5 523 102.5 523 98.4C 523 90.1 512.1 82.7 498.8 82.1C 486.5 81.6 481.4 84.3 472.3 96.6C 470.1 99.5 470.1 99.5 470.1 97.1C 469.9 92.4 467.6 86.8 464.7 84.4C 461 81.3 453.1 81.1 448.4 83.9z"
         id="path18" />
      <path
         style="stroke:none;fill:#000098;fill-opacity:1"
         d="M 1192.4 83.8C 1184.1 86.3 1178.1 90 1172.7 96C 1166.7 102.6 1164.6 109 1165.2 118.2C 1165.7 124.1 1166.3 125.9 1169.3 130.3C 1175.7 139.5 1184.2 143.9 1209.4 150.9C 1226.6 155.7 1231.9 158.3 1234.3 163C 1236.4 167.1 1236 173.2 1233.5 176.1C 1229.7 180.2 1223 182.4 1214.5 182.3C 1201.7 182.2 1195.3 178.6 1187.3 167C 1181.6 158.6 1177.7 156.7 1171.4 159.1C 1163.7 162 1161.5 169.7 1165.7 179.1C 1172.7 194.8 1195.3 203.5 1222.4 201C 1249.7 198.4 1264 185.6 1264.2 163.5C 1264.4 146.2 1252.9 137.1 1220.3 128.6C 1196.7 122.4 1192 119.7 1192 112.4C 1192 101.8 1211.3 96.3 1223.3 103.3C 1225.6 104.7 1229.5 108.1 1231.9 111C 1237.4 117.5 1241.4 120 1246.5 120C 1255.9 120 1260.9 112.4 1257.5 103.4C 1255.1 97.1 1251.2 92.9 1244.1 89.1C 1234 83.8 1229.8 82.8 1213.5 82.4C 1201.1 82.1 1197.4 82.3 1192.4 83.8z"
         id="path20" />
    </g>
  </g>
</svg>
