<svg id="Layer_1" data-name="Layer 1" xmlns="http://www.w3.org/2000/svg" xmlns:xlink="http://www.w3.org/1999/xlink" viewBox="0 0 565.29 555.7"><defs><style>.cls-1{fill:#fefefe;}.cls-2{fill:#9bbefd;}.cls-3{fill:#d2e1fd;}.cls-4{fill:#71a3fd;}.cls-5{fill:#2773fe;}.cls-6{fill:#4185fe;}.cls-7{fill:#031e50;}.cls-8{fill:#042051;}.cls-9{fill:#d0e0fc;}.cls-10{mask:url(#mask);}.cls-11{fill:none;}.cls-12{filter:url(#luminosity-noclip);}</style><filter id="luminosity-noclip" x="28.68" y="-8587" width="556.93" height="32766" filterUnits="userSpaceOnUse" color-interpolation-filters="sRGB"><feFlood flood-color="#fff" result="bg"/><feBlend in="SourceGraphic" in2="bg"/></filter><mask id="mask" x="4.69" y="-8739.35" width="556.93" height="32766" maskUnits="userSpaceOnUse"><g class="cls-12"/></mask></defs><title>hackphslogo_final</title><path class="cls-1" d="M65.67,245a4.46,4.46,0,0,0,.72.88q16.36,12,32.76,24A281,281,0,0,0,102,298.27c4.14,5.93,8.19,11.69,11.68,17.83-1.4,3.81-4.49,6.48-6.63,9.8a58.63,58.63,0,0,1-11.79,13.77c-9.19,7.58-19.68,13.34-29,20.68-4.11,3.23-8.43,6.19-12.9,9.27,3.24,4.55,8.86,5.64,11.58,10.15C55.41,413.59,46,447.38,36.42,481.44l10.47,1.63c1.41,6.18,4.31,12.14,5.12,18.74-7,8.91-15.92,16.06-24,24.54,6.68,3.38,13.16,5.08,19.55,8.85,2,19.12,4,38.7,6.06,58,6.34,2.08,12.62-.77,18.57,1.76,2.09,9,.48,18.36,2.49,27.73,12.43-3.57,23.82-8.76,35.7-12.5,1.67,3.35-1.43,6.7-.1,10.47L139,604.77c0,1.37.07,2,0,2.67a210.16,210.16,0,0,0-1.49,26.89c0,1.31-.7,3.13,1.69,3.27,1,1.27,2.46.74,3.71.75,4.89,0,9.77-.24,14.65-.41,10.59-.39,21.19-.26,31.78-.35h14.18c2,7.47,1.8,14.92,3.53,22.73,9.59-2.15,17.74-8,27.66-8.9,7.9,8.91,13.8,19.73,22.29,27.73,4.49-.3,7.32-3.27,11.3-3.88,3.66,8.78,9,16.56,12.81,25.09.55,1.22.8,2.6,2.71,2.36,3.13-4.21,4.85-9.35,8.26-13.7,6.26,5.14,10.52,11.88,16.22,18.22,5.37-6.44,10.34-12.53,16.05-18.3,3.71,4.41,5.29,10,9.34,14.67,5.39-9.66,9.72-19.33,14.29-28.69,4.24,1,7.49,3.59,11.34,4.13,8.34-9,14.52-19.4,22.07-28.49,9.59,1.81,18.22,5.81,27.58,9,1.29-8.42,2.62-15.82,2.8-23.36q30.27.09,60.54.15c1.46,0,3.23.79,4.37-1,.84.43,1.53.38,1.72-.1-.19-10.88-.94-21.24-1.86-32.23l28.51,15.24c1.15-1.21.46-2,.53-2.7.25-2.56-2.08-5-.28-7.6l35.8,12.42c1.63-9.77.53-19,2.15-28.08,5.89-1.92,12.13-.24,18.44-1.61q2.7-29.37,5.36-58.5c6.08-3.91,13-5.49,19.88-9.27a252.51,252.51,0,0,1-25-24.28c.74-6.37,3.77-12.05,5.07-17.75,3.27-2.32,7.28-.4,10.27-3.22q-14.91-50.58-29.82-101.15c4.4-3.07,7.42-7,11.78-9.59-13.15-9.16-26.19-18.19-39.14-27.34-2.45-1.73-5.46-2.65-7.35-5.22-4.94-6.71-9.94-13.37-14.92-20.06,3.41-5.33,6.75-10.72,10.29-16a11.14,11.14,0,0,0,1.94-5.88q.42-9.29.86-18.57c1.67-2.09,0-4.71,1.24-7.14.86-.63,1.89-1.46,3-2.19,10.33-6.88,20-14.6,30-22a4.89,4.89,0,0,0,.55-3.47c-1.24-14.66-2.38-29.34-3.81-44-.53-5.39-.51-10.85-1.74-16a5.37,5.37,0,0,0-1-.92C528.46,173,518.56,166.24,507.82,161c-2.31-1.13-4.15-3.53-7.18-2.9a9.47,9.47,0,0,0-5.46.64c-9.18,3.5-18.4,6.9-27.55,10.48-6.18,2.41-12.81,4.23-18.29,7.78-9.19,6-17.66,13.08-26.38,19.77-4.6,3.53-9.09,7.19-13.64,10.79l-42.23-28c-4-1-9.14-1.37-14.23-2.16-13.48-2.09-26.95-4.17-40.4-6.45-2.61-.44-5.32-1.12-7.88-.81-7.75.92-15.46,2.2-23.16,3.48-10.58,1.77-21.08,4-31.74,5.22-2.61.31-5.59.3-7.63,2-6.19,5.05-13.36,8.59-19.78,13.29a227,227,0,0,1-21.67,14.33c-8.57-7.45-18.25-13.27-27-20.35-5.44-4.4-10.84-9.09-17.44-11.67-14.57-5.71-29.27-11.09-43.91-16.59-1.78-.67-3.56-1.17-5.09.55-3.38,1.82-6.73,3.67-10.14,5.43-6.13,3.17-11.41,7.86-17.84,10.39S68.75,182.3,68.88,190c.14,8.14-1.11,16.29-1.49,24.44C66.9,224.66,64.94,234.76,65.67,245Z" transform="translate(-23.99 -152.35)"/><path class="cls-2" d="M107.16,160.35c1.53-1.72,3.31-1.22,5.09-.55,14.64,5.5,29.34,10.88,43.91,16.59,6.6,2.58,12,7.27,17.44,11.67,8.75,7.08,18.43,12.9,27,20.35a227,227,0,0,0,21.67-14.33c6.42-4.7,13.59-8.24,19.78-13.29,2-1.67,5-1.66,7.63-2,10.66-1.25,21.16-3.45,31.74-5.22,7.7-1.28,15.41-2.56,23.16-3.48,2.56-.31,5.27.37,7.88.81,13.45,2.28,26.92,4.36,40.4,6.45,5.09.79,10.26,1.17,14.23,2.16l42.23,28c4.55-3.6,9-7.26,13.64-10.79,8.72-6.69,17.19-13.8,26.38-19.77,5.48-3.55,12.11-5.37,18.29-7.78,9.15-3.58,18.37-7,27.55-10.48a9.47,9.47,0,0,1,5.46-.64l0,1.46c-4.66,15.59-11.14,30.55-15.69,46.18-4.39,15.14-9.32,30.06-18,43.47a126.44,126.44,0,0,0-7.26,13.72c-2.81,5.83-6.42,11.27-8.78,17.21,1.24,1.55,2.84,2,4.27,2.55q10.62,4.5,21.31,8.84c1.83.74,3.4,1.53,3.43,3.81-1.29.49-1.5,1.66-2,2.78-1.87,4.64-3.59,9.37-5.9,13.78a43.66,43.66,0,0,0-4.35,10.88c-.37-.1-.87-.08-1.08-.31-9.37-10.35-20-19.46-29.69-29.46a55.2,55.2,0,0,0-10.26-8.65c-9.67-6.05-19-12.61-28.53-18.92-.91-.6-1.65-1.73-3-1.44.07,6.92,2.69,13.59,2.11,20.5l-.93.32-43.34-48-27.88,5.55c-1.31-5.31-1-10.31-1.1-15.19a2.78,2.78,0,0,1,2.28-.9l18.63,1.53q17.85,1.44,35.7,2.84c7.16.69,13.88,3.28,20.8,5,5.2,1.27,10.35,2.68,15.53,4l.88-.81c-3.21-10.1-6.43-20.2-9.67-30.39-17.86,1.12-35.5.55-53.13.61.46-2.12-1.46-1.92-2.48-2.34-6.88-2.82-13.81-5.54-20.73-8.27l-26.5-10.39c-16.34,5.87-32,12.74-47.88,19.22-.9.37-2.26.3-2.22,1.84-.67.87-1.64.75-2.56.75l-12.76,0h-37.3c-3.07,10.32-6.95,20.22-9.44,31.24,7.58-2.14,14.29-4.07,21-5.93,5.08-1.41,10-3.49,15.37-3.76a167.38,167.38,0,0,0,18.16-1.66c9.6-1.2,19.3-1.32,28.88-2.85,3.3-.53,7-1.4,10-.13v15.59c-9.83-1.89-19.28-2.95-28.57-5.34-2,2.48-4.23,4.54-6.26,6.73-7.46,8.05-14,16.88-21.72,24.78-4.68,4.81-8.94,10.16-13.21,15.42-.55.67-1.08,1.62-2.62.89-.3-6.56,2.5-13.13,1.52-20.32-4.67,3.17-8.91,6.06-13.17,8.93-6.59,4.46-13.65,8.35-19.67,13.48-10.51,8.93-20.08,18.93-29.58,28.94-2.61,2.76-5.74,5.13-7.66,8.53l-1.63.75-.85-.37a8.09,8.09,0,0,0-.68-3.84c-2.09-5.11-4-10.27-6.23-15.33-1.28-3-2-6.31-4.4-8.71a3.12,3.12,0,0,1,2.18-3c3.94-1.6,7.87-3.19,11.75-4.91,5-2.23,10-4.59,15.1-6.94-2.9-6.51-6.3-12.21-9.54-18-2.07-3.71-3.78-7.64-6.05-11.22-4.26-6.71-8.74-13.38-11.47-20.82-3.91-10.65-7.11-21.55-11.31-32.14-4.89-12.31-8.63-25.07-12.81-37.65-.31-.92-.32-1.88-1.64-1.77Z" transform="translate(-23.99 -152.35)"/><path class="cls-3" d="M411.8,636.17c-.18,7.54-1.51,14.94-2.8,23.36-9.36-3.16-18-7.16-27.58-9-7.55,9.09-13.73,19.47-22.07,28.49-3.85-.54-7.1-3.17-11.34-4.13-4.57,9.36-8.9,19-14.29,28.69-4.05-4.71-5.63-10.26-9.34-14.67-5.71,5.77-10.68,11.86-16.05,18.3-5.7-6.34-10-13.08-16.22-18.22-3.41,4.35-5.13,9.49-8.26,13.7-1.91.24-2.16-1.14-2.71-2.36-3.84-8.53-9.15-16.31-12.81-25.09-4,.61-6.81,3.58-11.3,3.88-8.49-8-14.39-18.82-22.29-27.73-9.92,1-18.07,6.75-27.66,8.9-1.73-7.81-1.55-15.26-3.53-22.73H189.37c5-1.62,10.18.19,15.65-1.09-1.66-12.72-3.32-25.33-5-37.93,1.7,0,2.5,1.39,3.45,2.41a110.54,110.54,0,0,0,10.27,9.2c3.19,2.69,6.69,5.05,9.33,8.36-3.47,12.5-7.66,24.79-11.91,37.4,4-1,5.89-4.21,8.72-6.06,5.75-3.76,11.08-8.2,17-11.71,6.15-3.67,11.06-9,17.37-12.44,2.29-1.26,5.16-2.69,6.38-5.57l2.53-.17a2.45,2.45,0,0,0,2.15.65c10.11-1.21,20.2-2.58,30.34-3.44,5.89-.5,11.71-1.45,17.78-.66,12.06,1.59,24.22,2.4,36.35,3.55,1,.1,2.14.7,2.56-.88l5.11.2-2.3,1.38,48.62,33.76c1-1.36.23-2,0-2.73q-5.55-17.09-11.19-34.16c6.88-7.17,14.7-13.29,22.2-19.76.17-.15.52-.09.78-.12-1.25,9.72-2.65,19.42-3.65,29.17C411.6,630,409.69,633.09,411.8,636.17Z" transform="translate(-23.99 -152.35)"/><path class="cls-2" d="M263.15,620l-2.53.17c-5.51-.27-11-.8-16.52-.77-7,.05-14-1.32-21-.85-2.64-3.31-6.14-5.67-9.33-8.36A110.54,110.54,0,0,1,203.5,601c-.95-1-1.75-2.4-3.45-2.41-.24-.57-.14-1.38-1.27-1.5-3.91,2.65-8.3,5-12.18,7.85-9,6.66-18.43,12.53-27.74,18.63a69.54,69.54,0,0,0-7.84,6c-3.61,3.16-8.55,4.34-11.79,8-2.39-.14-1.68-2-1.69-3.27A210.16,210.16,0,0,1,139,607.44c.08-.64,0-1.3,0-2.67l-28.79,15.94c-1.33-3.77,1.77-7.12.1-10.47a3.64,3.64,0,0,0,1.65-2.9c.59-5.09,1.55-10.13,2.16-15.22S115.87,582,116,576.83c.75.19,1.49.33,1.9-.59L122.3,572c.83-.21,1.68-.4,2-1.39,8.16-6.94,15.45-14.91,24.28-21.1,10.5,4,20,10.12,30.89,14.55,6.25,9.38,13.4,18.87,19.44,30,.16-1.51.23-2.16.3-2.8,3-1.15,2.23-4.2,3-6.35,3.68-10.34,6.37-21,10.52-31.2h27.63a72.57,72.57,0,0,1,6.8-6.36c2.29-2.1,4-5.46,7.8-5.65,0,3.44-.83,6.86-.24,10.47,8,9.14,15.07,19.27,23.66,27.32,3,.76,5.44-.29,7.66.85l3.87,10.34c5.11,3.5,11.28,4.44,16.2,8a52.56,52.56,0,0,1-.87,12.86c-7,1.27-13.95,2.37-20.82,3.81C277.3,616.82,270.09,617.82,263.15,620Z" transform="translate(-23.99 -152.35)"/><path class="cls-2" d="M415.56,597.78c-.26,0-.61,0-.78.12-7.5,6.47-15.32,12.59-22.2,19.76l-35.14,1.75-5.11-.2-42-7.76c-.49-4.55-1.19-8.72-.62-12.9,4.91-3.28,10.51-4.8,15.52-7.65l4.39-11.12h6.63c9.24-8.7,16-18.95,23.92-27.9.78-3.78-.32-7.33-.24-10.91,5.92,2.69,9.46,8.35,15,11.86h27.19c1.22,5.87,4.49,10.95,6.34,16.59,2.39,7.28,4,14.82,7.27,21.82.22.55.07,1.42,1.08,1.27,5.35-10.82,12.85-20.26,19.16-30.7a6.38,6.38,0,0,0,4.09-1.08c6.53-4.13,14-6.45,20.54-10.53a18.26,18.26,0,0,1,5.83-2.52c8.72,6.83,16.69,14.53,25.11,21.69,2.27,1.93,4.34,4.49,7.44,5.42.88,9.41,3,18.62,4.53,27.92.29,1.79-.52,4.15,1.85,5.27-1.8,2.59.53,5,.28,7.6-.07.71.62,1.49-.53,2.7L476.57,603c.92,11,1.67,21.35,1.86,32.23-.19.48-.88.53-1.72.1a8.75,8.75,0,0,0-1.22-1c-9.52-5.27-18.15-11.91-27.31-17.73-9.94-6.32-19.72-12.93-29.54-19.45-.71-.46-1.39-1.32-2.61-.81Z" transform="translate(-23.99 -152.35)"/><path class="cls-3" d="M131.78,297c2.44,2.4,3.12,5.72,4.4,8.71,2.19,5.06,4.14,10.22,6.23,15.33a8.09,8.09,0,0,1,.68,3.84c-3,1.75-3.67,5.09-5.39,7.7-4.66,7.07-9.17,14.24-13.74,21.37-.81.23-1.73.32-1.78,1.47l-4.29,7.1c-4.24,7-9.26,13.57-13.2,20.8a2.69,2.69,0,0,0-1.16,1.64,8,8,0,0,0-2,3.16,1.4,1.4,0,0,0-1.57,1.73c-3,3.86-5.48,8.1-8.78,13.27,0,9.56,0,20.12,0,30.68,0,5.54-.43,11.05-.45,16.6,0,9.9-1,19.81-1,29.74-3.69,1.19-6.59,3.84-10,5.48-9.68,4.6-18.17,11.21-27.61,16.23-.81-6.6-3.71-12.56-5.12-18.74l-10.47-1.63c9.54-34.06,19-67.85,28.46-101.67-2.72-4.51-8.34-5.6-11.58-10.15,4.47-3.08,8.79-6,12.9-9.27,9.36-7.34,19.85-13.1,29-20.68A58.63,58.63,0,0,0,107,325.9c2.14-3.32,5.23-6,6.63-9.8l2,1C120.85,310.15,126.85,304,131.78,297Z" transform="translate(-23.99 -152.35)"/><path class="cls-3" d="M467.68,322.79A43.66,43.66,0,0,1,472,311.91c2.31-4.41,4-9.14,5.9-13.78.46-1.12.67-2.29,2-2.78,3.72,4.66,7.24,9.49,11.24,13.88,1.85,2,3.06,5.36,6.76,5.1,5,6.69,10,13.35,14.92,20.06,1.89,2.57,4.9,3.49,7.35,5.22,13,9.15,26,18.18,39.14,27.34-4.36,2.6-7.38,6.52-11.78,9.59q14.93,50.61,29.82,101.15c-3,2.82-7,.9-10.27,3.22-1.3,5.7-4.33,11.38-5.07,17.75-7.2-3.63-13.9-8.12-20.92-12.05-5.49-3.07-10.69-6.74-16.65-8.95-1.18-26-2.35-52-3.55-78.4-1.89-2.94-4.35-6-6.65-9.23-7.94-11.1-14.63-23-23-33.92-4.59-6-8.25-12.73-12.48-19C475.44,332.05,472.63,326.58,467.68,322.79Z" transform="translate(-23.99 -152.35)"/><path class="cls-4" d="M524.43,477.66c6,2.21,11.16,5.88,16.65,8.95,7,3.93,13.72,8.42,20.92,12.05a252.51,252.51,0,0,0,25,24.28c-6.86,3.78-13.8,5.36-19.88,9.27q-2.67,29.16-5.36,58.5c-6.31,1.37-12.55-.31-18.44,1.61-1.62,9.09-.52,18.31-2.15,28.08L505.33,608c-2.37-1.12-1.56-3.48-1.85-5.27-1.54-9.3-3.65-18.51-4.53-27.92,6-8.89,11-18.38,17.81-26.74,2.33-2.86,4.06-6.21,6.11-9.31a5.35,5.35,0,0,0,.59-4.91c-1.57-5.06-3-10.17-4.52-15.25-.91-3.05-1.51-6.25-2.85-9.1-3.32-7.09-4.64-14.74-7.14-22.26Z" transform="translate(-23.99 -152.35)"/><path class="cls-4" d="M52,501.81c9.44-5,17.93-11.63,27.61-16.23,3.45-1.64,6.35-4.29,10-5.48,5.53,2.53,10,6.62,15.41,9.43l-3.52,13a1.88,1.88,0,0,0-1.49,2.39c-1.3,2.24-1.15,4.85-1.89,7.25-2.36,7.58-4.48,15.23-6.68,22.86-.55,1.92-1,3.83.28,5.71,2.76,4,5.47,8.1,8.19,12.15,0,1.1.94,1.1,1.65,1.36,4.27,7.62,9.47,14.63,14.43,21.81,0,.24,0,.49-.05.74-.12,5.15-1.21,10.19-1.83,15.29s-1.57,10.13-2.16,15.22a3.64,3.64,0,0,1-1.65,2.9c-11.88,3.74-23.27,8.93-35.7,12.5-2-9.37-.4-18.77-2.49-27.73-6-2.53-12.23.32-18.57-1.76-2-19.35-4.07-38.93-6.06-58-6.39-3.77-12.87-5.47-19.55-8.85C36.09,517.87,45,510.72,52,501.81Z" transform="translate(-23.99 -152.35)"/><path class="cls-5" d="M131.78,297c-4.93,7-10.93,13.19-16.15,20.11l-2-1c-3.49-6.14-7.54-11.9-11.68-17.83a281,281,0,0,1-2.83-28.39c5.09-.9,9.92,2.09,15,1.48a8,8,0,0,0,0-1.6c-3.24-11.89-6.61-23.74-9.7-35.67a149.34,149.34,0,0,0-6.92-20.88A29.44,29.44,0,0,1,98,208.1c1-4.45,2.12-8.82,3.51-13.16,2.59-8.16,3.15-16.76,4.9-25.11.64-3.08,1.85-6.07,1.61-9.3,1.32-.11,1.33.85,1.64,1.77,4.18,12.58,7.92,25.34,12.81,37.65,4.2,10.59,7.4,21.49,11.31,32.14,2.73,7.44,7.21,14.11,11.47,20.82,2.27,3.58,4,7.51,6.05,11.22,3.24,5.78,6.64,11.48,9.54,18-5.09,2.35-10.07,4.71-15.1,6.94-3.88,1.72-7.81,3.31-11.75,4.91A3.12,3.12,0,0,0,131.78,297Z" transform="translate(-23.99 -152.35)"/><path class="cls-5" d="M497.89,314.33c-3.7.26-4.91-3.07-6.76-5.1-4-4.39-7.52-9.22-11.24-13.88,0-2.28-1.6-3.07-3.43-3.81q-10.69-4.34-21.31-8.84c-1.43-.6-3-1-4.27-2.55,2.36-5.94,6-11.38,8.78-17.21a126.44,126.44,0,0,1,7.26-13.72c8.67-13.41,13.6-28.33,18-43.47,4.55-15.63,11-30.59,15.69-46.18,2.48.64,1.89,3,2.22,4.54,3.34,15.56,6.49,31.16,9.69,46.75-1.27.81-1.31,2.18-1.64,3.46-3.12,12.06-6.35,24.09-9.35,36.18-1.53,6.15-3.73,12.16-4.23,18.55l-.41.26.11.12.37-.32c4.48.52,8.7-2.18,13.62-1.33v6.12q-.44,9.28-.86,18.57a11.14,11.14,0,0,1-1.94,5.88C504.64,303.61,501.3,309,497.89,314.33Z" transform="translate(-23.99 -152.35)"/><path class="cls-6" d="M512.51,210.86c-3.2-15.59-6.35-31.19-9.69-46.75-.33-1.54.26-3.9-2.22-4.54l0-1.46c3-.63,4.87,1.77,7.18,2.9,10.74,5.23,20.64,12,31.41,17.18a5.37,5.37,0,0,1,1,.92c1.23,5.2,1.21,10.66,1.74,16,1.43,14.64,2.57,29.32,3.81,44a4.89,4.89,0,0,1-.55,3.47c-2.37-2.47-4.54-5.21-7.17-7.39C529,227.68,521.5,218.48,512.51,210.86Z" transform="translate(-23.99 -152.35)"/><path class="cls-6" d="M108,160.53c.24,3.23-1,6.22-1.61,9.3-1.75,8.35-2.31,16.95-4.9,25.11-1.39,4.34-2.53,8.71-3.51,13.16a29.44,29.44,0,0,0-.42,5.11C89.62,221.93,81,230,72.33,237.92c-2.42,2.2-3.57,5.55-6.66,7.08-.73-10.24,1.23-20.34,1.72-30.52.38-8.15,1.63-16.3,1.49-24.44-.13-7.74,3.81-11.31,10.3-13.87S90.89,169,97,165.78c3.41-1.76,6.76-3.61,10.14-5.43Z" transform="translate(-23.99 -152.35)"/><path class="cls-2" d="M65.67,245c3.09-1.53,4.24-4.88,6.66-7.08,8.71-7.92,17.29-16,25.22-24.71a149.34,149.34,0,0,1,6.92,20.88c3.09,11.93,6.46,23.78,9.7,35.67a8,8,0,0,1,0,1.6c-5.11.61-9.94-2.38-15-1.48q-16.4-12-32.76-24A4.46,4.46,0,0,1,65.67,245Z" transform="translate(-23.99 -152.35)"/><path class="cls-2" d="M512.51,210.86c9,7.62,16.47,16.82,25.55,24.36,2.63,2.18,4.8,4.92,7.17,7.39-10,7.36-19.69,15.08-30,22-1.1.73-2.13,1.56-3,2.19-1.23,2.43.43,5.05-1.24,7.14v-6.12c-4.92-.85-9.14,1.85-13.62,1.33l-.07-.06c.5-6.39,2.7-12.4,4.23-18.55,3-12.09,6.23-24.12,9.35-36.18C511.2,213,511.24,211.67,512.51,210.86Z" transform="translate(-23.99 -152.35)"/><path class="cls-5" d="M139.23,637.6c3.24-3.67,8.18-4.85,11.79-8a69.54,69.54,0,0,1,7.84-6c9.31-6.1,18.78-12,27.74-18.63,3.88-2.88,8.27-5.2,12.18-7.85,1.13.12,1,.93,1.27,1.5,1.65,12.6,3.31,25.21,5,37.93-5.47,1.28-10.69-.53-15.65,1.09-10.59.09-21.19,0-31.78.35-4.88.17-9.76.45-14.65.41C141.69,638.34,140.26,638.87,139.23,637.6Z" transform="translate(-23.99 -152.35)"/><path class="cls-5" d="M415.56,597.78l.47-1.4c1.22-.51,1.9.35,2.61.81,9.82,6.52,19.6,13.13,29.54,19.45,9.16,5.82,17.79,12.46,27.31,17.73a8.75,8.75,0,0,1,1.22,1c-1.14,1.74-2.91,1-4.37,1q-30.27,0-60.54-.15c-2.11-3.08-.2-6.21.11-9.22C412.91,617.2,414.31,607.5,415.56,597.78Z" transform="translate(-23.99 -152.35)"/><path class="cls-7" d="M524.43,477.66,509,487.22c2.5,7.52,3.82,15.17,7.14,22.26,1.34,2.85,1.94,6,2.85,9.1,1.51,5.08,2.95,10.19,4.52,15.25a5.35,5.35,0,0,1-.59,4.91c-2,3.1-3.78,6.45-6.11,9.31-6.8,8.36-11.85,17.85-17.81,26.74-3.1-.93-5.17-3.49-7.44-5.42-8.42-7.16-16.39-14.86-25.11-21.69-.32-.83-.64-1.65-.95-2.48,3.08-7.84,5.29-16,8.79-23.7.54-1.19.67-2.53,1.67-3.57,5.46-5.64,10.51-11.75,16.41-16.87,4.93-4.29,9.15-9.15,13.74-13.63,0-21.24,0-42.29,0-63.34a10.23,10.23,0,0,0-.94-3.84c-4.63-11.68-8.67-23.57-13.89-35-4.12-9-7.11-18.61-10.63-28-4.52-1.26-8.76-3-13.65-3.35,1.89,5.59,3.85,10.72,6.11,15.78a147.9,147.9,0,0,1,5.78,16.55c1.28,4.17,3.59,8.11,3.54,12.61-.09,7.31-.36,14.62-.67,21.93-.59,13.93-1.3,27.86-1.9,41.79-.51,11.8-.92,23.61-1.38,35.39-8.18,2.25-15.2,6.3-22.43,9.83-3.42,1.68-7.28,2.51-10.3,5l-1.5-.16a.84.84,0,0,0-.27-.44l-.83-2.49c3.32-5.6,6-11.57,10.19-17.17-6.05-.46-11.18-.88-16.32-1.25l-28.5-2c-.64-.3-1.55-.1-1.87-1,.4-1.85,1.81-2.29,3.42-2.73,9.2-2.5,18.37-5.11,27.55-7.67l20-5.54c3.19-16.79,6.32-33.31,9.46-49.83l1.39-1c-.76-3.34-1.47-6.7-2.29-10-2.43-9.89-4.07-20-7.21-29.7,1-4.65,2.17-9.28,3.1-14,1.2-6.05,3-12,4.21-18,1.46-7.19.39-14.58.56-21.88,0-1.23.44-2.59-.57-3.95l-45.08,19.66c2.95,6.11,7.38,10.73,10.75,16.05,4.6,7.29,9.72,14.25,13.65,21.95h-22.6l-.63-.56c-.36-10.27-.71-20.54-1.1-31.8-4.32,3.3-4.94,7.67-6.77,11.23-2,3.88-3.63,7.92-5.5,12.06-7.8-.29-15.34.38-22.77-.42-2.75-11.41-2.64-22.91-4-34.2-14.16-1.09-27.81-.48-41.41-1.79.31-.72.46-1.07.62-1.42,9.09-5.44,17.5-12,27.4-17,7.79,10.89,16.92,20.81,25.41,31.37l23.29-5.69c-6-18.67-14.67-35.83-21-54.14l-42.31,11c-.85-1.64-2.55-2.31-3.95-3.23-6.76-4.44-13.6-8.76-20.4-13.14-2.55-1.65-4.83-3.75-7.65-4.84-5.75,1.93-10.93,4.92-16.54,7.18-5.39-2.77-11.25-4.45-16.4-7.4-4.65,3-9.09,5.71-13.31,8.69-5.93,4.19-12.41,7.61-17.76,12.63a4.38,4.38,0,0,1-1.54.18c-12.26-2.92-24.57-5.59-36.69-9a15.12,15.12,0,0,0-4.73-1c-7.45,17.86-14.33,35.66-20.42,54.11,7.92,2.18,15.52,4.3,23.36,5.26l25.31-31.34c4.42,2.61,8.63,5.07,12.81,7.59,4.53,2.73,9,5.52,13.52,8.29h.12a.32.32,0,0,0,.3.46c.19.57,1.08.91.36,2l-41.2,1.87c-1.87,11.46-1,22.91-2.72,34.42-7.77,0-15.26,1.1-22.84.59-.48-.84-.91-1.5-1.24-2.21-2.72-5.76-5.38-11.54-8.15-17.28-.62-1.29-.88-3.33-3.68-2.32.31,10.2.22,20.53-.42,30.84l-23.3.2c8.19-12.54,15.34-25.74,24-37.95l-45.55-19.21.09-1.2c1.92-3.4,5.05-5.77,7.66-8.53,9.5-10,19.07-20,29.58-28.94,6-5.13,13.08-9,19.67-13.48,4.26-2.87,8.5-5.76,13.17-8.93,1,7.19-1.82,13.76-1.52,20.32,1.54.73,2.07-.22,2.62-.89,4.27-5.26,8.53-10.61,13.21-15.42,7.69-7.9,14.26-16.73,21.72-24.78,2-2.19,4.25-4.25,6.26-6.73,9.29,2.39,18.74,3.45,28.57,5.34V226.83c-3-1.27-6.68-.4-10,.13-9.58,1.53-19.28,1.65-28.88,2.85a167.38,167.38,0,0,1-18.16,1.66c0-1,.63-1.31,1.45-1.62,13.41-5,26.83-10.07,40.2-15.21a12.23,12.23,0,0,1,7.41-.4c5.7,1.31,11.34,2.92,17.08,3.92,3.76.65,7.44,2.73,11.28,1.81,6.07-1.46,12.37-2.13,18.23-4.13,7.63-2.59,14.54-1.86,21.84,1.18,10,4.19,20.38,7.66,30.56,11.52,1.13.42,2.81.31,3,2.13q-17.85-1.41-35.7-2.84l-18.63-1.53a2.78,2.78,0,0,0-2.28.9c.06,4.88-.21,9.88,1.1,15.19l27.88-5.55,43.34,48,.93-.32c.58-6.91-2-13.58-2.11-20.5,1.38-.29,2.12.84,3,1.44,9.51,6.31,18.86,12.87,28.53,18.92A55.2,55.2,0,0,1,436.91,293c9.72,10,20.32,19.11,29.69,29.46.21.23.71.21,1.08.31,4.95,3.79,7.76,9.26,11.12,14.28,4.23,6.31,7.89,13,12.48,19,8.32,10.88,15,22.82,23,33.92,2.3,3.2,4.76,6.29,6.65,9.23C522.08,425.66,523.25,451.66,524.43,477.66ZM286,245.14l-1.09-.43L225,283.78l.5,1.23,61.88-6.65C287.13,267,285.88,256.1,286,245.14Zm37.92,33.2,63.37,6a1.49,1.49,0,0,0-.9-1.68c-10.2-5.45-19.42-12.46-29.35-18.36-9.69-5.76-19.05-12.09-28.58-18.14-.83-.53-1.61-1.52-3-.84C324.92,256.12,324.42,267,323.89,278.34Zm-100.34,6.37c.39.26.76.48.87-.24A.61.61,0,0,0,223.55,284.71Z" transform="translate(-23.99 -152.35)"/><path class="cls-7" d="M116,576.09c-5-7.18-10.16-14.19-14.43-21.81a1.48,1.48,0,0,0-1.65-1.36c-2.72-4-5.43-8.12-8.19-12.15-1.29-1.88-.83-3.79-.28-5.71,2.2-7.63,4.32-15.28,6.68-22.86.74-2.4.59-5,1.89-7.25,1.62-.09,1.48-1.29,1.49-2.39l3.52-13c-5.37-2.81-9.88-6.9-15.41-9.43,0-9.93,1-19.84,1-29.74,0-5.55.46-11.06.45-16.6,0-10.56,0-21.12,0-30.68,3.3-5.17,5.76-9.41,8.78-13.27,1.15,0,1.64-.62,1.57-1.73a8,8,0,0,1,2-3.16c1-.12,1.18-.81,1.16-1.64,3.94-7.23,9-13.76,13.2-20.8l4.29-7.1c1.06.08,1.7-.35,1.78-1.47,4.57-7.13,9.08-14.3,13.74-21.37,1.72-2.61,2.44-6,5.39-7.7l.85.37c0,7,0,14.07,0,21.11,0,1.3-.75,3.1,1.49,3.52l.13.79c-2.26.95-1.51,3-1.65,4.66L132.16,359l-8.32,21.26c-1.07,0-1.52.64-1.48,1.67-2.85,11.22-7.6,21.78-11.52,32.63-2.31,6.38-3.87,12.77-3.68,19.72.36,13.81.93,27.62.62,41.44-.11,4.64,0,9.29,0,13.4a138.47,138.47,0,0,0,18.81,18.46c9.09,7.4,15.86,16.28,17.45,28.33-.13,1.22.39,1.86,1.66,1.81,1.73,2.8,2.18,6.08,3.4,9.06l-.54,2.79c-8.83,6.19-16.12,14.16-24.28,21.1-1.09-.15-1.83.19-2,1.39l-4.41,4.22Z" transform="translate(-23.99 -152.35)"/><path class="cls-6" d="M380.56,230.67c-.21-1.82-1.89-1.71-3-2.13C367.36,224.68,357,221.21,347,217c-7.3-3-14.21-3.77-21.84-1.18-5.86,2-12.16,2.67-18.23,4.13-3.84.92-7.52-1.16-11.28-1.81-5.74-1-11.38-2.61-17.08-3.92a12.23,12.23,0,0,0-7.41.4c-13.37,5.14-26.79,10.17-40.2,15.21-.82.31-1.43.66-1.45,1.62-5.37.27-10.29,2.35-15.37,3.76-6.73,1.86-13.44,3.79-21,5.93,2.49-11,6.37-20.92,9.44-31.24h37.3l12.76,0c.92,0,1.89.12,2.56-.75,7.31.24,14.63,0,21.94,0,26-.12,51.91,0,77.87,0,17.63-.06,35.27.51,53.13-.61,3.24,10.19,6.46,20.29,9.67,30.39l-.88.81c-5.18-1.34-10.33-2.75-15.53-4C394.44,234,387.72,231.36,380.56,230.67Z" transform="translate(-23.99 -152.35)"/><path class="cls-7" d="M355,209.06c-26,0-51.91-.1-77.87,0-7.31,0-14.63.28-21.94,0,0-1.54,1.32-1.47,2.22-1.84,15.85-6.48,31.54-13.35,47.88-19.22l26.5,10.39c6.92,2.73,13.85,5.45,20.73,8.27C353.51,207.14,355.43,206.94,355,209.06Z" transform="translate(-23.99 -152.35)"/><path class="cls-8" d="M145.44,349.84c-2.24-.42-1.48-2.22-1.49-3.52,0-7,0-14.07,0-21.11l1.63-.75-.09,1.2a7.69,7.69,0,0,0-.31,1.93C145.85,335,145.4,342.42,145.44,349.84Z" transform="translate(-23.99 -152.35)"/><path class="cls-8" d="M359.89,541c-.08,3.58,1,7.13.24,10.91-7.95,9-14.68,19.2-23.92,27.9h-6.63l-4.39,11.12c-5,2.85-10.61,4.37-15.52,7.65-.57,4.18.13,8.35.62,12.9l42,7.76c-.42,1.58-1.54,1-2.56.88-12.13-1.15-24.29-2-36.35-3.55-6.07-.79-11.89.16-17.78.66-10.14.86-20.23,2.23-30.34,3.44a2.45,2.45,0,0,1-2.15-.65c6.94-2.17,14.15-3.17,21.23-4.66,6.87-1.44,13.82-2.54,20.82-3.81a52.56,52.56,0,0,0,.87-12.86c-4.92-3.53-11.09-4.47-16.2-8L286,580.35c-2.22-1.14-4.7-.09-7.66-.85-8.59-8-15.66-18.18-23.66-27.32-.59-3.61.19-7,.24-10.47l1-.81,12.62,13.76c1.1,3.41,4.05,5.31,6.73,7,6.48,4,11.6,9.57,17.25,14.17.3,4.13.57,7.93.86,11.92l14.33,5,14.69-5.19V576.21C328.72,570.85,334.46,565,341,560c2.09-1.58,5.05-2.71,5.41-6L358.29,541Z" transform="translate(-23.99 -152.35)"/><path class="cls-1" d="M357.44,619.41l35.14-1.75q5.61,17.08,11.19,34.16c.22.69,1,1.37,0,2.73l-48.62-33.76Z" transform="translate(-23.99 -152.35)"/><path class="cls-1" d="M223.1,618.54c7-.47,14,.9,21,.85,5.5,0,11,.5,16.52.77-1.22,2.88-4.09,4.31-6.38,5.57-6.31,3.48-11.22,8.77-17.37,12.44-5.88,3.51-11.21,8-17,11.71-2.83,1.85-4.72,5-8.72,6.06C215.44,643.33,219.63,631,223.1,618.54Z" transform="translate(-23.99 -152.35)"/><path class="cls-6" d="M255.87,540.9l-1,.81c-3.79.19-5.51,3.55-7.8,5.65a72.57,72.57,0,0,0-6.8,6.36H212.69c-.62-3-2.39-5.49-3.41-8.29-3-8.29-5.79-16.68-8.65-25,0-1.76,1.32-2.87,2.14-4.18,4.43-7,9.95-13.28,14.44-20.28,3.61-5.62,7.55-11,11.35-16.52-2.83.71-5.14,2.2-7.64,3.23-4.26,1.76-7.24,5.95-12.19,6.34-1.63-12.33-3-24.7-4.1-37.09-.13-1.45.1-3-1.52-3.81L195.25,413c2.3.32,3.45,2.37,5.09,3.61,6.85,5.14,14.24,9.51,21,14.84,4.06,3.2,7.82,7.1,13.13,8.7l10.41-7.22c4.21-2.56,8.46-5.06,12.61-7.72,1.36-.88,3.22-1.36,3.61-3.34l2-.06a131,131,0,0,0,17.77,12.83c-8.57,11-16,22.81-23.81,34.2,5.44,9.91,10.73,19.23,15.68,28.73,2.27,4.34,6.12,7.59,7.9,12.21a15.76,15.76,0,0,0-2.07,1.82C270.67,521.11,262.6,530.49,255.87,540.9Z" transform="translate(-23.99 -152.35)"/><path class="cls-5" d="M148.54,549.53l.54-2.79c1.75-.77,2.29-2.54,3-4,3.45-6.9,7.5-13.48,11.07-20.3,1.6-3.07,4.83-5,5.57-8.55l1.65-.21c3.37,8.09,7.83,15.6,12.11,23.2,2.25,4,5.65,7.64,6.8,11.91,1.86,6.85,3.16,13.89,4.94,20.8,1.85,7.18,3.3,14.46,4.92,21.7-.07.64-.14,1.29-.3,2.8-6-11.12-13.19-20.61-19.44-30C168.52,559.65,159,553.49,148.54,549.53Z" transform="translate(-23.99 -152.35)"/><path class="cls-9" d="M199.17,591.27c-1.62-7.24-3.07-14.52-4.92-21.7-1.78-6.91-3.08-14-4.94-20.8-1.15-4.27-4.55-7.91-6.8-11.91-4.28-7.6-8.74-15.11-12.11-23.2l.24-.32c8,2.75,16.32,4.11,24.34,6.66,1.92.61,3.71,1.1,5.65.39,2.86,8.36,5.61,16.75,8.65,25,1,2.8,2.79,5.31,3.41,8.29-4.15,10.18-6.84,20.86-10.52,31.2C201.4,587.07,202.15,590.12,199.17,591.27Z" transform="translate(-23.99 -152.35)"/><path class="cls-8" d="M122.3,572c.13-1.2.87-1.54,2-1.39C124,571.62,123.13,571.81,122.3,572Z" transform="translate(-23.99 -152.35)"/><path class="cls-8" d="M116,576.09l1.85.15c-.41.92-1.15.78-1.9.59C116,576.58,116,576.33,116,576.09Z" transform="translate(-23.99 -152.35)"/><path class="cls-6" d="M359.89,541l-1.6,0c.08-1.42-.68-2.41-1.49-3.51a351.77,351.77,0,0,0-22.68-27.67A41.36,41.36,0,0,1,340,498.5c6.59-9.52,11.05-20.16,16.73-29.94-7.44-12.12-16.12-22.85-24.26-34,4.34-3.11,8.64-6.26,13-9.28,1.81-1.24,3.23-3.11,5.52-3.62l.9.15c5.13,4,10.32,8,16.55,10.29,4.1,1.64,6.82,5.37,10.49,7.15a3.15,3.15,0,0,0,2.1-.76c10.35-6.81,19.55-15.18,30-21.91,2.18-1.41,3.6-3.92,6.41-4.38-1.82,11.81-4.79,23.39-7.36,35.05a4.42,4.42,0,0,0-.69,1.37c-1.28,13.19-2.67,26.36-4.71,39.45a3.64,3.64,0,0,1-2.18-.77c-5.48-3.2-11-6.33-17-9.8a8,8,0,0,0,.45,1.87c5.84,8.3,11.55,16.71,17.63,24.84,3.68,4.92,7.69,9.6,10.63,15q-6.06,16.77-12.1,33.53H374.9C369.35,549.32,365.81,543.66,359.89,541Z" transform="translate(-23.99 -152.35)"/><path class="cls-5" d="M465.45,545.2c.31.83.63,1.65.95,2.48a18.26,18.26,0,0,0-5.83,2.52c-6.56,4.08-14,6.4-20.54,10.53a6.38,6.38,0,0,1-4.09,1.08c-6.31,10.44-13.81,19.88-19.16,30.7-1,.15-.86-.72-1.08-1.27,1.89-8.26,3.81-16.52,5.68-24.78,2.54-11.27,4.33-22.63,11.34-32.53,4.64-6.55,7.72-14.21,11.5-21.37l1.5.16Q455.58,529,465.45,545.2Z" transform="translate(-23.99 -152.35)"/><path class="cls-3" d="M444.22,512.56c-3.78,7.16-6.86,14.82-11.5,21.37-7,9.9-8.8,21.26-11.34,32.53-1.87,8.26-3.79,16.52-5.68,24.78-3.23-7-4.88-14.54-7.27-21.82-1.85-5.64-5.12-10.72-6.34-16.59q6-16.76,12.1-33.53c1.58,1,3.07.11,4.56-.29q12.6-3.42,25.2-6.89A.84.84,0,0,1,444.22,512.56Z" transform="translate(-23.99 -152.35)"/><path class="cls-8" d="M101.49,388.08c.07,1.11-.42,1.71-1.57,1.73A1.4,1.4,0,0,1,101.49,388.08Z" transform="translate(-23.99 -152.35)"/><path class="cls-8" d="M124,353.91c-.08,1.12-.72,1.55-1.78,1.47C122.23,354.23,123.15,354.14,124,353.91Z" transform="translate(-23.99 -152.35)"/><path class="cls-8" d="M104.69,383.28c0,.83-.16,1.52-1.16,1.64A2.69,2.69,0,0,1,104.69,383.28Z" transform="translate(-23.99 -152.35)"/><path class="cls-8" d="M101.55,502.56c0,1.1.13,2.3-1.49,2.39A1.88,1.88,0,0,1,101.55,502.56Z" transform="translate(-23.99 -152.35)"/><path class="cls-8" d="M100,552.92a1.48,1.48,0,0,1,1.65,1.36C100.9,554,100,554,100,552.92Z" transform="translate(-23.99 -152.35)"/><path class="cls-2" d="M497.36,269.11l-.37.32-.11-.12.41-.26Z" transform="translate(-23.99 -152.35)"/><path class="cls-2" d="M352,421.85l-.9-.15c-2-3-.08-5.93-.05-8.9.1-7.82,1.64-15.53,1.8-23.36a17.28,17.28,0,0,0-.47-5c-1.81-6.63-3.44-13.32-5.42-19.91-2.63-8.77-4-18-8.6-26.45-10.54,6.31-21.57,11.68-32.46,17.58-7.59-4.15-15-8.25-22.46-12.25-3.41-1.82-6.48-4.57-10.55-4.44a6.18,6.18,0,0,0-1.56,3.47c-2.76,10.48-5,21.14-8.26,31.45-3.19,10-3,19.88-1.82,30.13.67,5.88,1.93,11.76,1.84,17.74l-2,.06c-5.65-7.77-11.38-15.5-16.93-23.35-2.74-3.89-5-8.11-10-9.66-5.34-1.64-10.15-4.51-15.11-7a8.37,8.37,0,0,0-5-.78c-7.89,1-15.83,1.2-23.75,1.54l.05.05c.64-10.31.73-20.64.42-30.84,2.8-1,3.06,1,3.68,2.32,2.77,5.74,5.43,11.52,8.15,17.28.33.71.76,1.37,1.24,2.21,7.58.51,15.07-.56,22.84-.59,1.69-11.51.85-23,2.72-34.42l41.2-1.87c.72-1.09-.17-1.43-.36-2l.36-.57-.66.11h-.12c1-1.5.17-3-.46-4.14a86.52,86.52,0,0,1-4.76-11.71c-2.15-6.08-5.08-11.89-6.4-18.26,5.35-5,11.83-8.44,17.76-12.63,4.22-3,8.66-5.67,13.31-8.69,5.15,2.95,11,4.63,16.4,7.4,5.61-2.26,10.79-5.25,16.54-7.18,2.82,1.09,5.1,3.19,7.65,4.84,6.8,4.38,13.64,8.7,20.4,13.14,1.4.92,3.1,1.59,3.95,3.23-2.94,7.64-5.92,15.26-8.8,22.92-1.44,3.81-3.35,7.46-4,11.55-.16.35-.31.7-.62,1.42,13.6,1.31,27.25.7,41.41,1.79,1.32,11.29,1.21,22.79,4,34.2,7.43.8,15,.13,22.77.42,1.87-4.14,3.52-8.18,5.5-12.06,1.83-3.56,2.45-7.93,6.77-11.23.39,11.26.74,21.53,1.1,31.8-5.7.73-11.37-.07-17-.53s-10.8-.88-15.69,2.48c-1.72,1.19-3.91,1.71-5.75,2.68-3.92,2.09-8.84,2.79-11.46,6.83C365.93,402.55,358.23,411.71,352,421.85Z" transform="translate(-23.99 -152.35)"/><path class="cls-9" d="M465.45,545.2q-9.87-16.25-19.73-32.48c3-2.5,6.88-3.33,10.3-5,7.23-3.53,14.25-7.58,22.43-9.83.46-11.78.87-23.59,1.38-35.39.6-13.93,1.31-27.86,1.9-41.79.31-7.31.58-14.62.67-21.93.05-4.5-2.26-8.44-3.54-12.61a147.9,147.9,0,0,0-5.78-16.55c-2.26-5.06-4.22-10.19-6.11-15.78,4.89.32,9.13,2.09,13.65,3.35,3.52,9.42,6.51,19,10.63,28,5.22,11.47,9.26,23.36,13.89,35a10.23,10.23,0,0,1,.94,3.84c0,21.05,0,42.1,0,63.34-4.59,4.48-8.81,9.34-13.74,13.63-5.9,5.12-10.95,11.23-16.41,16.87-1,1-1.13,2.38-1.67,3.57C470.74,529.19,468.53,537.36,465.45,545.2Z" transform="translate(-23.99 -152.35)"/><path class="cls-9" d="M258.19,300.15c1.32,6.37,4.25,12.18,6.4,18.26a86.52,86.52,0,0,0,4.76,11.71c.63,1.18,1.43,2.64.46,4.14-4.5-2.77-9-5.56-13.52-8.29-4.18-2.52-8.39-5-12.81-7.59l-25.31,31.34c-7.84-1-15.44-3.08-23.36-5.26,6.09-18.45,13-36.25,20.42-54.11a15.12,15.12,0,0,1,4.73,1c12.12,3.42,24.43,6.09,36.69,9A4.38,4.38,0,0,0,258.19,300.15Z" transform="translate(-23.99 -152.35)"/><path class="cls-9" d="M341.42,334.73c.63-4.09,2.54-7.74,4-11.55,2.88-7.66,5.86-15.28,8.8-22.92l42.31-11c6.34,18.31,15,35.47,21,54.14l-23.29,5.69c-8.49-10.56-17.62-20.48-25.41-31.37C358.92,322.75,350.51,329.29,341.42,334.73Z" transform="translate(-23.99 -152.35)"/><path class="cls-9" d="M404.69,488.11c2-13.09,3.43-26.26,4.71-39.45a4.42,4.42,0,0,1,.69-1.37c5.34,4.25,10.28,9,16.05,13.07a66.5,66.5,0,0,0,4-5.77q7.34-13.21,14.46-26.55c1-1.9,2.08-3.7,4.06-4.75l18.36-.84c-3.14,16.52-6.27,33-9.46,49.83l-20,5.54c-9.18,2.56-18.35,5.17-27.55,7.67-1.61.44-3,.88-3.42,2.73H405.4C405.16,488.2,404.92,488.16,404.69,488.11Z" transform="translate(-23.99 -152.35)"/><path class="cls-5" d="M244.85,432.89l-10.41,7.22c-5.31-1.6-9.07-5.5-13.13-8.7-6.73-5.33-14.12-9.7-21-14.84-1.64-1.24-2.79-3.29-5.09-3.61l-1.93-3L168,402.57a6.12,6.12,0,0,0-2.21,2.77c-1.23,6.42-.94,12.91-1.31,19.36l-18.18-.48c-.71-.23-1.63,0-2-1,.3-.93,1.33-1.43,1.39-2.65.26-5.34,2.1-10.39,3.16-15.58,1.48-7.27,3.25-14.47,4.89-21.7,4.45-.37,8.93.22,13.37-.46l23.3-.2-.05-.05c3.22,4.25,8.55,5.57,12.61,9.15.35,5.7.71,11.61,1.06,17.27,4.9,5,10.83,8,15.78,12,7.08.94,14,.74,21.08,1.2C242.05,425.87,244.71,428.87,244.85,432.89Z" transform="translate(-23.99 -152.35)"/><path class="cls-5" d="M467,422.45l-18.36.84c-1.69-7.27-1-14.9-2.89-22.58l-26,8-2.28,3.5c-2.81.46-4.23,3-6.41,4.38-10.4,6.73-19.6,15.1-30,21.91a3.15,3.15,0,0,1-2.1.76c-3.67-1.78-6.39-5.51-10.49-7.15.09-4.06,2.76-7,4.08-10.26,7-1,13.66-.87,20.49-1.16,5.56-4,10.36-9.17,16.13-12.61.43-6.35-.24-12.22,1.11-17.71l12.63-8.77h22.6l13.38.12c3.14,9.73,4.78,19.81,7.21,29.7.82,3.33,1.53,6.69,2.29,10Z" transform="translate(-23.99 -152.35)"/><path class="cls-9" d="M458.92,381.76l-13.38-.12c-3.93-7.7-9.05-14.66-13.65-21.95-3.37-5.32-7.8-9.94-10.75-16.05L466.22,324c1,1.36.6,2.72.57,3.95-.17,7.3.9,14.69-.56,21.88-1.22,6-3,11.94-4.21,18C461.09,372.48,460,377.11,458.92,381.76Z" transform="translate(-23.99 -152.35)"/><path class="cls-9" d="M167,382.82c-4.44.68-8.92.09-13.37.46-1.63-7.33-3.44-14.62-4.82-22-.69-3.72-3.24-6.79-3.28-10.66l-.13-.79c0-7.42.41-14.84-.27-22.25a7.69,7.69,0,0,1,.31-1.93L191,344.87C182.38,357.08,175.23,370.28,167,382.82Z" transform="translate(-23.99 -152.35)"/><path class="cls-4" d="M286,245.14c-.09,11,1.16,21.85,1.43,33.22L225.52,285l-.5-1.23,59.86-39.07Z" transform="translate(-23.99 -152.35)"/><path class="cls-4" d="M323.89,278.34c.53-11.38,1-22.22,1.53-33,1.4-.68,2.18.31,3,.84,9.53,6.05,18.89,12.38,28.58,18.14,9.93,5.9,19.15,12.91,29.35,18.36a1.49,1.49,0,0,1,.9,1.68Z" transform="translate(-23.99 -152.35)"/><path class="cls-8" d="M422.94,381.63l-12.63,8.77c-1.35,5.49-.68,11.36-1.11,17.71-5.77,3.44-10.57,8.62-16.13,12.61-6.83.29-13.47.14-20.49,1.16-1.32,3.27-4,6.2-4.08,10.26-6.23-2.29-11.42-6.24-16.55-10.29,6.28-10.14,14-19.3,20.45-29.32,2.62-4,7.54-4.74,11.46-6.83,1.84-1,4-1.49,5.75-2.68,4.89-3.36,10.18-2.92,15.69-2.48s11.31,1.26,17,.53Zm-39.41,7.16a5.52,5.52,0,0,0-3.07,1.71c-6.14,2.59-7.06,9.17-10.91,13.42,2.67,4.39,5.07,8.35,7.51,12.35a135.06,135.06,0,0,0,15.59-1l11-10.4c.16-3,.31-5.91.45-8.56-.93-1.53-1.7-2.77-2.45-4s-1.58-2.72-2.27-3.92C386.62,385.8,389.87,385.71,383.53,388.79Z" transform="translate(-23.99 -152.35)"/><path class="cls-5" d="M404.69,488.11c.23.05.47.09.71.12.21,2,2.13,1.56,3.24,2.28l34.48,19.12c.27.83.55,1.66.83,2.49q-12.6,3.45-25.2,6.89c-1.49.4-3,1.25-4.56.29-2.94-5.45-6.95-10.13-10.63-15-6.08-8.13-11.79-16.54-17.63-24.84a8,8,0,0,1-.45-1.87c6,3.47,11.55,6.6,17,9.8A3.64,3.64,0,0,0,404.69,488.11Z" transform="translate(-23.99 -152.35)"/><path class="cls-9" d="M443.12,509.63l-34.48-19.12-.15-1.29,28.5,2c5.14.37,10.27.79,16.32,1.25C449.08,498.06,446.44,504,443.12,509.63Z" transform="translate(-23.99 -152.35)"/><path class="cls-4" d="M408.49,489.22l.15,1.29c-1.11-.72-3-.29-3.24-2.28h1.22C406.94,489.12,407.85,488.92,408.49,489.22Z" transform="translate(-23.99 -152.35)"/><path class="cls-6" d="M223.55,284.71a.61.61,0,0,1,.87-.24C224.31,285.19,223.94,285,223.55,284.71Z" transform="translate(-23.99 -152.35)"/><path class="cls-9" d="M269.93,334.25l.66-.11-.36.57A.32.32,0,0,1,269.93,334.25Z" transform="translate(-23.99 -152.35)"/><path class="cls-9" d="M168.75,513.87c-.74,3.56-4,5.48-5.57,8.55-3.57,6.82-7.62,13.4-11.07,20.3-.74,1.48-1.28,3.25-3,4-1.22-3-1.67-6.26-3.4-9.06a1.73,1.73,0,0,0-1.66-1.81c-1.59-12-8.36-20.93-17.45-28.33a138.47,138.47,0,0,1-18.81-18.46c0-4.11-.09-8.76,0-13.4.31-13.82-.26-27.63-.62-41.44-.19-6.95,1.37-13.34,3.68-19.72,3.92-10.85,8.67-21.41,11.52-32.63.94-.15,1.7-.48,1.48-1.67L132.16,359l11.76-3.67,1.63.65a2.38,2.38,0,0,0-1.68,1.64c-4.06,12.64-8.07,25.3-12.3,37.89a21.63,21.63,0,0,0-1.07,9c1.48,16,1.82,32.06,2.83,48.08q1.06,16.86,1.78,33.76c.19,4.49-.27,9,.89,13.3C147.13,504.05,157.9,509.05,168.75,513.87Z" transform="translate(-23.99 -152.35)"/><path class="cls-8" d="M168.75,513.87c-10.85-4.82-21.62-9.82-32.75-14.24-1.16-4.26-.7-8.81-.89-13.3q-.74-16.89-1.78-33.76c-1-16-1.35-32.08-2.83-48.08a21.63,21.63,0,0,1,1.07-9c4.23-12.59,8.24-25.25,12.3-37.89a2.38,2.38,0,0,1,1.68-1.64l-1.63-.65c.14-1.7-.61-3.71,1.65-4.66,0,3.87,2.59,6.94,3.28,10.66,1.38,7.37,3.19,14.66,4.82,22-1.64,7.23-3.41,14.43-4.89,21.7-1.06,5.19-2.9,10.24-3.16,15.58-.06,1.22-1.09,1.72-1.39,2.65.41,1,1.33.78,2,1q5,24.73,10,49.52c2.12.65,4,1.27,5.93,1.8,13.82,3.82,27.83,6.89,41.6,10.92,1.93.57,3.38,1.26,3.91,3.28l-1.12.81a32.72,32.72,0,0,0-3.56-.11q-20.7,1.71-41.4,3.5c-.25,1.5.79,2.5,1.3,3.67,2.12,4.84,6,8.59,8.27,13.33l-.56,2.4-.24.32Z" transform="translate(-23.99 -152.35)"/><path class="cls-8" d="M144,535.87a1.73,1.73,0,0,1,1.66,1.81C144.41,537.73,143.89,537.09,144,535.87Z" transform="translate(-23.99 -152.35)"/><path class="cls-8" d="M123.84,380.22c.22,1.19-.54,1.52-1.48,1.67C122.32,380.86,122.77,380.26,123.84,380.22Z" transform="translate(-23.99 -152.35)"/><path class="cls-5" d="M346.44,554c-.36,3.28-3.32,4.41-5.41,6-6.57,5-12.31,10.82-18.68,16.18v11.32l-14.69,5.19-14.33-5c-.29-4-.56-7.79-.86-11.92-5.65-4.6-10.77-10.14-17.25-14.17-2.68-1.67-5.63-3.57-6.73-7l9.9-6.52c5.52,5.48,11.71,10.18,17.47,15.2,6.76,0,13.29-.07,19.81,0a8.42,8.42,0,0,0,6.1-2.32c4.68-4.11,9.55-8,14.34-12,1.59-.4,2.69.7,4,1.27C342.35,551.3,344,553.3,346.44,554Z" transform="translate(-23.99 -152.35)"/><path class="cls-4" d="M346.44,554c-2.41-.74-4.09-2.74-6.35-3.74-1.29-.57-2.39-1.67-4-1.27-.88-1.61-2.58-2.25-4-3.07-7.76-4.44-15.59-8.74-23.4-13.08-.1-1.56,1.08-2.38,2.05-3.21q11.65-10,23.39-19.9a351.77,351.77,0,0,1,22.68,27.67c.81,1.1,1.57,2.09,1.49,3.51Z" transform="translate(-23.99 -152.35)"/><path class="cls-4" d="M278.39,548.14l-9.9,6.52L255.87,540.9c6.73-10.41,14.8-19.79,22.64-29.34a15.76,15.76,0,0,1,2.07-1.82c6.68,5.73,13.47,11.35,20,17.25,2,1.77,5.11,2.55,5.57,5.8-6.22,3.5-12.43,7.05-18.69,10.48C284.45,544.92,281.72,547.1,278.39,548.14Z" transform="translate(-23.99 -152.35)"/><path class="cls-4" d="M263,421.77c.09-6-1.17-11.86-1.84-17.74-1.16-10.25-1.37-20.1,1.82-30.13,3.29-10.31,5.5-21,8.26-31.45a6.18,6.18,0,0,1,1.56-3.47c4.07-.13,7.14,2.62,10.55,4.44,7.46,4,14.87,8.1,22.46,12.25,10.89-5.9,21.92-11.27,32.46-17.58,4.59,8.49,6,17.68,8.6,26.45,2,6.59,3.61,13.28,5.42,19.91a17.28,17.28,0,0,1,.47,5c-.16,7.83-1.7,15.54-1.8,23.36,0,3-1.91,5.94.05,8.9-2.29.51-3.71,2.38-5.52,3.62-4.4,3-8.7,6.17-13,9.28-1.49,0-2.53-1.05-3.41-1.87-5.75-5.32-12.93-8.72-18.59-14.13a8.05,8.05,0,0,0-4.44-2.45c-3.8,4.19-9.16,6.62-13.74,10.19-3.71,2.89-7,6.45-11.5,8.26A131,131,0,0,1,263,421.77Z" transform="translate(-23.99 -152.35)"/><path class="cls-2" d="M280.81,434.6c4.51-1.81,7.79-5.37,11.5-8.26,4.58-3.57,9.94-6,13.74-10.19a8.05,8.05,0,0,1,4.44,2.45c5.66,5.41,12.84,8.81,18.59,14.13.88.82,1.92,1.9,3.41,1.87,8.14,11.11,16.82,21.84,24.26,34C351.07,478.34,346.61,489,340,498.5a41.36,41.36,0,0,0-5.9,11.27q-11.72,9.94-23.39,19.9c-1,.83-2.15,1.65-2.05,3.21l-2.53-.09c-.46-3.25-3.61-4-5.57-5.8-6.53-5.9-13.32-11.52-20-17.25-1.78-4.62-5.63-7.87-7.9-12.21-4.95-9.5-10.24-18.82-15.68-28.73C264.79,457.41,272.24,445.62,280.81,434.6Z" transform="translate(-23.99 -152.35)"/><path class="cls-3" d="M207.71,489.74c-.53-2-2-2.71-3.91-3.28-13.77-4-27.78-7.1-41.6-10.92-1.92-.53-3.81-1.15-5.93-1.8q-5-24.81-10-49.52l18.18.48c1.52,1.6,3.26,2.93,4.33,5,2.5,4.95,5.25,9.77,8,14.6,3.19,5.6,6.46,11.14,10,17.16,6.29-4,11.87-8,16.37-13.42,1.62.83,1.39,2.36,1.52,3.81,1.08,12.39,2.47,24.76,4.1,37.09Z" transform="translate(-23.99 -152.35)"/><path class="cls-2" d="M203.11,448.08c-4.5,5.39-10.08,9.42-16.37,13.42-3.51-6-6.78-11.56-10-17.16-2.74-4.83-5.49-9.65-8-14.6-1.07-2.11-2.81-3.44-4.33-5,.37-6.45.08-12.94,1.31-19.36a6.12,6.12,0,0,1,2.21-2.77l25.35,7.34,1.93,3Z" transform="translate(-23.99 -152.35)"/><path class="cls-7" d="M244.85,432.89c-.14-4-2.8-7-4-10.71-7.11-.46-14-.26-21.08-1.2-5-4-10.88-7-15.78-12-.35-5.66-.71-11.57-1.06-17.27-4.06-3.58-9.39-4.9-12.61-9.15,7.92-.34,15.86-.58,23.75-1.54a8.37,8.37,0,0,1,5,.78c5,2.5,9.77,5.37,15.11,7,5,1.55,7.27,5.77,10,9.66,5.55,7.85,11.28,15.58,16.93,23.35-.39,2-2.25,2.46-3.61,3.34C253.31,427.83,249.06,430.33,244.85,432.89ZM226.3,388.24c-4.33-2.59-8.16.55-12.64.72-.81,3.77-4.33,5.61-5.68,9,.27,2.76.55,5.52.82,8.21a85.25,85.25,0,0,1,11.54,9.9A145.62,145.62,0,0,0,236,417l7.35-12.12c-.42-.77-.72-1.37-1.07-1.93-1.72-2.69-3.51-5.33-5.15-8.06a7.86,7.86,0,0,0-6-4A12.41,12.41,0,0,0,226.3,388.24Z" transform="translate(-23.99 -152.35)"/><path class="cls-5" d="M207.71,489.74l1-.76c5-.39,7.93-4.58,12.19-6.34,2.5-1,4.81-2.52,7.64-3.23-3.8,5.5-7.74,10.9-11.35,16.52-4.49,7-10,13.25-14.44,20.28-.82,1.31-2.16,2.42-2.14,4.18-1.94.71-3.73.22-5.65-.39-8-2.55-16.37-3.91-24.34-6.66l.56-2.4a13.65,13.65,0,0,0,4-1.79c5.61-3.24,11-6.86,16.75-9.88,5-2.62,10.15-5.19,14.67-8.72Z" transform="translate(-23.99 -152.35)"/><path class="cls-2" d="M417.45,412.24l2.28-3.5,26-8c1.9,7.68,1.2,15.31,2.89,22.58-2,1-3,2.85-4.06,4.75q-7.16,13.32-14.46,26.55a66.5,66.5,0,0,1-4,5.77c-5.77-4.06-10.71-8.82-16.05-13.07C412.66,435.63,415.63,424.05,417.45,412.24Z" transform="translate(-23.99 -152.35)"/><path class="cls-1" d="M383.53,388.79c6.34-3.08,3.09-3,15.8-.42.69,1.2,1.47,2.57,2.27,3.92s1.52,2.5,2.45,4c-.14,2.65-.29,5.54-.45,8.56l-11,10.4a135.06,135.06,0,0,1-15.59,1c-2.44-4-4.84-8-7.51-12.35,3.85-4.25,4.77-10.83,10.91-13.42l.94.84c-3.44,3-3.49,8.74,1.56,13.83a28.35,28.35,0,0,0,10.67-8.37c-.36-2.48.35-4.88-.52-7.26-3.08-1.24-6-.69-8.92.17Z" transform="translate(-23.99 -152.35)"/><path class="cls-9" d="M381.4,391.34l-.94-.84a5.52,5.52,0,0,1,3.07-1.71l.66.92A4.76,4.76,0,0,1,381.4,391.34Z" transform="translate(-23.99 -152.35)"/><path class="cls-9" d="M206.59,490.55c-4.52,3.53-9.64,6.1-14.67,8.72-5.77,3-11.14,6.64-16.75,9.88a13.65,13.65,0,0,1-4,1.79c-2.28-4.74-6.15-8.49-8.27-13.33-.51-1.17-1.55-2.17-1.3-3.67q20.72-1.76,41.4-3.5A32.72,32.72,0,0,1,206.59,490.55Z" transform="translate(-23.99 -152.35)"/><path class="cls-3" d="M306.15,532.79l2.53.09c7.81,4.34,15.64,8.64,23.4,13.08,1.45.82,3.15,1.46,4,3.07-4.79,4-9.66,7.92-14.34,12a8.42,8.42,0,0,1-6.1,2.32c-6.52-.11-13.05,0-19.81,0-5.76-5-11.95-9.72-17.47-15.2,3.33-1,6.06-3.22,9.07-4.87C293.72,539.84,299.93,536.29,306.15,532.79Z" transform="translate(-23.99 -152.35)"/><path class="cls-1" d="M231.08,390.84a7.86,7.86,0,0,1,6,4c1.64,2.73,3.43,5.37,5.15,8.06.35.56.65,1.16,1.07,1.93L236,417a145.62,145.62,0,0,1-15.64-.88,85.25,85.25,0,0,0-11.54-9.9c-.27-2.69-.55-5.45-.82-8.21,1.35-3.41,4.87-5.25,5.68-9,4.48-.17,8.31-3.31,12.64-.72l-.11,1.31c-2.12-.48-4.1.28-6.3.59-.81,2.55-.47,5-.42,7.5,2.6,3.68,6.4,5.73,9.54,8.13,4.88-3.33,6.22-7.4,3.93-12.56l-1.9-1Z" transform="translate(-23.99 -152.35)"/><path class="cls-9" d="M226.19,389.55l.11-1.31a12.41,12.41,0,0,1,4.78,2.6l0,1.39A18.69,18.69,0,0,1,226.19,389.55Z" transform="translate(-23.99 -152.35)"/><path class="cls-8" d="M381.4,391.34a4.76,4.76,0,0,0,2.79-1.63c2.92-.86,5.84-1.41,8.92-.17.87,2.38.16,4.78.52,7.26A28.35,28.35,0,0,1,383,405.17C377.91,400.08,378,394.37,381.4,391.34Z" transform="translate(-23.99 -152.35)"/><path class="cls-8" d="M226.19,389.55a18.69,18.69,0,0,0,4.85,2.68l1.9,1c2.29,5.16.95,9.23-3.93,12.56-3.14-2.4-6.94-4.45-9.54-8.13-.05-2.48-.39-4.95.42-7.5C222.09,389.83,224.07,389.07,226.19,389.55Z" transform="translate(-23.99 -152.35)"/><g class="cls-10"><polygon class="cls-11" points="75.8 118.23 41.16 93.59 46.49 29.64 85.13 7.65 135.76 26.3 176.39 56.28 217.69 28.97 278.98 17.64 343.6 28.3 384.9 55.62 425.54 24.31 471.17 6.65 479.71 6.65 515.67 26.96 521 90.9 487.7 115.54 485.7 143.51 472.38 163.49 489.7 183.47 534.65 214.77 523.66 224.76 553.63 327.15 542.64 328.15 536.98 346.63 561.62 370.61 542.31 379.93 536.98 438.53 518 439.53 517.17 468.34 479.88 455.18 482.04 466.34 452.57 450.36 454.57 483.65 387.18 483.65 384.68 507.82 358.01 497.65 335.18 527.32 323.68 522.15 310.01 551.99 300.18 535.82 284.51 554.82 268.35 535.65 258.85 550.82 244.68 522.82 233.51 527.15 210.51 498.82 184.35 508.49 180.68 484.65 113.43 484.98 114.92 452.4 85.32 468.61 87.3 457.7 50.92 470.43 48.6 441.65 30.01 441.65 24.18 383.2 4.69 374.54 28.84 349.56 23.18 330.57 12.85 329.24 41.16 227.32 29.67 217.82 74.31 186.18 90.46 164.7 77.64 146.38 75.8 118.23"/></g><line class="cls-11" x1="130.68" y1="321.65" x2="183.68" y2="337.32"/><path class="cls-11" d="M67.33,182" transform="translate(-23.99 -152.35)"/><path class="cls-11" d="M56.67,192" transform="translate(-23.99 -152.35)"/><path class="cls-11" d="M200.33,208.67" transform="translate(-23.99 -152.35)"/></svg>
